<mxfile host="app.diagrams.net" modified="2024-06-12T07:43:10.209Z" agent="Mozilla/5.0 (Windows NT 10.0; Win64; x64; rv:109.0) Gecko/20100101 Firefox/115.0" version="24.4.6" etag="lac8T2KGwwPBxw8JuJdx" type="github">
  <diagram name="Page-1" id="oJp06f_CgrHkKwxpoW6r">
    <mxGraphModel>
      <root>
        <mxCell id="0" />
        <mxCell id="1" parent="0" />
      </root>
    </mxGraphModel>
  </diagram>
</mxfile>
